<?xml version="1.0" encoding="utf-8"?>
<!-- Generator: Adobe Illustrator 22.0.0, SVG Export Plug-In . SVG Version: 6.00 Build 0)  -->
<svg version="1.1" id="Camada_1" xmlns="http://www.w3.org/2000/svg" xmlns:xlink="http://www.w3.org/1999/xlink" x="0px" y="0px"
	 viewBox="0 0 37.4 35.2" style="enable-background:new 0 0 37.4 35.2;" xml:space="preserve">
<style type="text/css">
	.st0{fill:#98A13F;}
</style>
<g id="Group_84" transform="translate(77 434.432)">
	<path id="Path_282" class="st0" d="M-67-411.1c0-0.5,0.4-0.8,0.8-0.8c0.5,0,0.8,0.4,0.8,0.8v4.6h5.5l-1-11.1
		c-0.1-1-0.9-1.7-1.9-1.7h-1.4c-4,0-7.3,3.3-7.3,7.3v5.5h4.6V-411.1z"/>
	<path id="Path_283" class="st0" d="M-53.5-419.3c-1,0-1.8,0.7-1.9,1.7l-1,11.1h5.5v-4.6c0-0.5,0.4-0.8,0.8-0.8
		c0.5,0,0.8,0.4,0.8,0.8v4.6h4.6v-5.5c0-4-3.3-7.3-7.3-7.3H-53.5z"/>
	<ellipse id="Ellipse_3" class="st0" cx="-58.2" cy="-426.1" rx="5.4" ry="5.4"/>
	<path id="Path_284" class="st0" d="M-68.1-422c0,1,0.8,1.8,1.8,1.8c1,0,1.8-0.8,1.8-1.8c0,0,0,0,0,0l0,0v-4.1
		c0-3.6,2.9-6.5,6.5-6.5s6.5,2.9,6.5,6.5v4.1l0,0c0,1,0.8,1.8,1.8,1.8c1,0,1.8-0.8,1.8-1.8c0-0.9-0.7-1.7-1.6-1.7c0,0,0,0,0,0l0,0
		c0.9-0.1,1.6-0.8,1.6-1.7c0-1-0.8-1.7-1.7-1.8l0,0c1,0,1.7-0.8,1.7-1.8c0,0,0,0,0,0c0-1-0.8-1.8-1.8-1.8c-0.4,0-0.8,0.1-1.1,0.4
		c-1.5-2.5-4.2-4-7.1-4c-2.9,0-5.6,1.5-7.1,4c-0.8-0.6-1.9-0.5-2.5,0.3c-0.2,0.3-0.4,0.7-0.4,1.1c0,1,0.8,1.7,1.7,1.8l0,0
		c-1,0-1.7,0.8-1.7,1.8c0,0,0,0,0,0c0,0.9,0.7,1.7,1.6,1.7c0,0,0,0,0,0l0,0C-67.3-423.7-68.1-423-68.1-422
		C-68.1-422-68.1-422-68.1-422z"/>
	<path id="Path_285" class="st0" d="M-41.7-405H-75c-1.1,0-1.9,0.9-1.9,1.9v1.9c0,1.1,0.9,1.9,1.9,1.9h33.3c1.1,0,1.9-0.9,1.9-1.9
		v-1.9C-39.7-404.1-40.6-405-41.7-405C-41.6-405-41.6-405-41.7-405z"/>
</g>
</svg>
