<?xml version="1.0" encoding="utf-8"?>
<!-- Generator: Adobe Illustrator 22.0.0, SVG Export Plug-In . SVG Version: 6.00 Build 0)  -->
<svg version="1.1" id="Camada_1" xmlns="http://www.w3.org/2000/svg" xmlns:xlink="http://www.w3.org/1999/xlink" x="0px" y="0px"
	 viewBox="0 0 31.5 35" style="enable-background:new 0 0 31.5 35;" xml:space="preserve">
<style type="text/css">
	.st0{fill:#98A13F;}
</style>
<path id="Path_281" class="st0" d="M25.6,31.2c0.5,0,1-0.2,1.3-0.6c0.4-0.3,0.6-0.8,0.6-1.3V11.7h-2.9c-1.3,0-2.6-0.5-3.5-1.5
	c-0.9-0.9-1.4-2.1-1.3-3.4V4H5.9c-0.5-0.1-1,0.2-1.3,0.6C4.2,4.9,3.9,5.4,4,5.9v23.4c-0.1,0.5,0.2,1,0.6,1.3
	c0.3,0.4,0.8,0.7,1.3,0.6L25.6,31.2 M26.6,9.8l-5-5.2v2.2c0,0.8,0.3,1.5,0.9,2c0.5,0.6,1.2,0.9,2,0.9L26.6,9.8L26.6,9.8z M30.7,8.4
	c0.4,0.4,0.7,0.9,0.7,1.5v19.4c0,1.5-0.6,3-1.7,4.1c-1.1,1.1-2.6,1.7-4.1,1.7H5.9c-1.6,0-3-0.6-4.1-1.7c-1.1-1.1-1.7-2.6-1.7-4.1
	V5.8c0-1.5,0.6-3,1.7-4.1C2.9,0.6,4.4,0,5.9,0h15.7c0.5,0,1,0.2,1.3,0.6L30.7,8.4z M21.6,17.6c0.5,0,1,0.2,1.3,0.6
	c0.4,0.4,0.6,0.9,0.6,1.5c0,0.5-0.2,1-0.6,1.3c-0.4,0.3-0.8,0.5-1.3,0.6h-4v3.8c0,0.6-0.2,1.1-0.6,1.5c-0.4,0.3-0.8,0.5-1.3,0.6
	c-0.5,0-1.1-0.3-1.5-0.6c-0.3-0.4-0.6-0.9-0.6-1.5v-3.8H9.8c-0.5,0-1.1-0.3-1.5-0.6c-0.3-0.4-0.5-0.8-0.6-1.3c0-0.5,0.3-1.1,0.6-1.5
	c0.4-0.4,0.9-0.6,1.5-0.6h3.8v-4c0.1-0.5,0.3-1,0.6-1.3c0.4-0.4,0.9-0.6,1.5-0.6c1.1,0.1,1.9,0.9,1.9,1.9v4L21.6,17.6L21.6,17.6z"/>
</svg>
