<?xml version="1.0" encoding="utf-8"?>
<!-- Generator: Adobe Illustrator 22.0.0, SVG Export Plug-In . SVG Version: 6.00 Build 0)  -->
<svg version="1.1" id="Camada_1" xmlns="http://www.w3.org/2000/svg" xmlns:xlink="http://www.w3.org/1999/xlink" x="0px" y="0px"
	 viewBox="0 0 573.2 118.8" style="enable-background:new 0 0 573.2 118.8;" xml:space="preserve">
<style type="text/css">
	.st0{fill:#FFFFFF;}
	.st1{opacity:0.32;}
	.st2{fill:#98A13F;}
	.st3{opacity:0.36;fill:#98A13F;}
	.st4{clip-path:url(#SVGID_2_);}
	.st5{opacity:0.36;}
	.st6{fill:#FFFFFF;stroke:#262E50;stroke-width:0.3991;stroke-miterlimit:10;}
	.st7{fill:none;}
	.st8{opacity:0.56;fill:#131426;}
	.st9{opacity:0.75;}
	.st10{clip-path:url(#SVGID_4_);}
	.st11{clip-path:url(#SVGID_6_);}
	.st12{opacity:0.26;fill:#262E50;}
	.st13{opacity:0.5;fill:#262E50;}
	.st14{clip-path:url(#SVGID_8_);}
	.st15{clip-path:url(#SVGID_10_);}
	.st16{clip-path:url(#SVGID_12_);}
	.st17{clip-path:url(#SVGID_14_);}
	.st18{clip-path:url(#SVGID_16_);}
	.st19{clip-path:url(#SVGID_18_);}
	.st20{clip-path:url(#SVGID_20_);}
	.st21{clip-path:url(#SVGID_22_);}
	.st22{clip-path:url(#SVGID_24_);}
</style>
<g>
	<path class="st0" d="M258.5,75.6l-6.1-12.7h-2.8v12.7h-8.4V41.4h13.5c1.9,0,3.6,0.3,5,0.9c1.5,0.6,2.7,1.4,3.7,2.5
		c1,1,1.7,2.2,2.2,3.5c0.5,1.3,0.7,2.7,0.7,4.1c0,1.2-0.2,2.2-0.5,3.2c-0.3,1-0.7,1.8-1.3,2.5c-0.5,0.7-1.1,1.4-1.8,1.9
		c-0.7,0.5-1.3,1-2,1.3l7.4,14.3H258.5z M258,52.4c0-0.9-0.3-1.7-1-2.4c-0.6-0.7-1.5-1.1-2.7-1.1h-4.8v6.9h4.8c1.2,0,2-0.4,2.7-1.1
		C257.7,54.1,258,53.3,258,52.4z"/>
	<path class="st0" d="M298.4,58.5c0,1.3,0,2.5,0,3.8c0,1.2-0.1,2.4-0.3,3.6c-0.2,1.2-0.6,2.3-1,3.3c-0.5,1-1.2,2-2.1,2.9
		c-1.2,1.2-2.6,2.2-4.1,2.9c-1.5,0.7-3.3,1-5.4,1s-3.9-0.3-5.4-1c-1.5-0.7-2.9-1.6-4.1-2.9c-0.9-0.9-1.6-1.9-2.1-2.9
		c-0.5-1-0.8-2.1-1-3.3c-0.2-1.2-0.3-2.3-0.3-3.6c0-1.2,0-2.5,0-3.8c0-1.3,0-2.5,0-3.8c0-1.2,0.1-2.4,0.3-3.6c0.2-1.2,0.6-2.2,1-3.3
		c0.5-1,1.2-2,2.1-2.9c1.2-1.2,2.6-2.2,4.1-2.9c1.5-0.7,3.3-1,5.4-1s3.9,0.3,5.4,1c1.5,0.7,2.9,1.6,4.1,2.9c0.9,0.9,1.6,1.9,2.1,2.9
		s0.8,2.1,1,3.3c0.2,1.2,0.3,2.3,0.3,3.6C298.4,56,298.4,57.2,298.4,58.5z M290,58.5c0-1.6,0-2.8-0.1-3.8c-0.1-1-0.1-1.8-0.2-2.4
		c-0.1-0.6-0.2-1-0.4-1.4c-0.2-0.3-0.3-0.6-0.5-0.9c-0.3-0.4-0.8-0.8-1.3-1.1c-0.6-0.3-1.2-0.4-2-0.4c-0.8,0-1.4,0.1-2,0.4
		c-0.6,0.3-1,0.6-1.3,1.1c-0.2,0.3-0.4,0.5-0.5,0.9c-0.2,0.3-0.3,0.8-0.4,1.4c-0.1,0.6-0.2,1.4-0.2,2.4c-0.1,1-0.1,2.3-0.1,3.8
		c0,1.6,0,2.8,0.1,3.8c0.1,1,0.1,1.7,0.2,2.3c0.1,0.6,0.2,1,0.4,1.4c0.2,0.3,0.3,0.6,0.5,0.9c0.3,0.4,0.8,0.8,1.3,1.1
		c0.6,0.3,1.2,0.5,2,0.5c0.8,0,1.4-0.2,2-0.5c0.6-0.3,1-0.7,1.3-1.1c0.2-0.3,0.4-0.5,0.5-0.9c0.2-0.3,0.3-0.8,0.4-1.4
		c0.1-0.6,0.2-1.4,0.2-2.3C290,61.3,290,60.1,290,58.5z"/>
	<path class="st0" d="M324.7,73.7c-0.6,0.5-1.3,0.9-2.1,1.2c-0.8,0.3-1.6,0.6-2.5,0.8c-0.9,0.2-1.9,0.3-3.1,0.3c-2,0-3.8-0.3-5.3-1
		c-1.5-0.7-2.9-1.6-4.2-2.9c-0.9-0.9-1.6-1.9-2.1-2.9c-0.5-1-0.8-2.1-1-3.3c-0.2-1.2-0.3-2.3-0.3-3.6c0-1.2,0-2.5,0-3.8
		c0-1.3,0-2.5,0-3.8c0-1.2,0.1-2.4,0.3-3.6c0.2-1.2,0.6-2.2,1-3.3c0.5-1,1.2-2,2.1-2.9c1.2-1.2,2.6-2.2,4.2-2.9c1.5-0.7,3.3-1,5.3-1
		c1.1,0,2.1,0.1,3.1,0.3c0.9,0.2,1.7,0.4,2.5,0.8c0.8,0.3,1.4,0.7,2.1,1.2c0.6,0.5,1.2,1,1.8,1.6l-5.6,5.6c-0.5-0.5-1.1-1-1.6-1.3
		c-0.5-0.4-1.3-0.5-2.3-0.5c-0.8,0-1.4,0.1-2,0.4c-0.5,0.3-1,0.6-1.3,1c-0.2,0.3-0.4,0.5-0.5,0.9c-0.2,0.3-0.3,0.8-0.4,1.4
		c-0.1,0.6-0.2,1.4-0.3,2.4c-0.1,1-0.1,2.3-0.1,3.8c0,1.6,0,2.8,0.1,3.8c0.1,1,0.2,1.8,0.3,2.4c0.1,0.6,0.2,1.1,0.4,1.4
		c0.2,0.3,0.3,0.6,0.5,0.9c0.3,0.4,0.8,0.8,1.3,1c0.5,0.3,1.2,0.4,2,0.4c1,0,1.7-0.2,2.3-0.5c0.5-0.4,1.1-0.8,1.6-1.3l5.6,5.6
		C325.9,72.7,325.3,73.2,324.7,73.7z"/>
	<path class="st0" d="M356.7,68.7c-0.7,1.5-1.6,2.8-2.8,3.9c-1.2,1.1-2.6,1.9-4.1,2.5c-1.6,0.6-3.3,0.9-5,0.9c-1.8,0-3.4-0.3-5-0.9
		c-1.6-0.6-2.9-1.4-4.1-2.5c-1.2-1.1-2.1-2.4-2.8-3.9c-0.7-1.5-1-3.2-1-5.1V41.4h8.4v22c0,1.6,0.4,2.8,1.2,3.7
		c0.8,0.9,1.9,1.3,3.3,1.3c1.4,0,2.5-0.4,3.4-1.3c0.8-0.9,1.2-2.1,1.2-3.7v-22h8.4v22.2C357.8,65.5,357.4,67.1,356.7,68.7z"/>
	<path class="st0" d="M382.4,75.6l-6.1-12.7h-2.8v12.7h-8.4V41.4h13.5c1.9,0,3.6,0.3,5,0.9c1.5,0.6,2.7,1.4,3.7,2.5
		c1,1,1.7,2.2,2.2,3.5c0.5,1.3,0.7,2.7,0.7,4.1c0,1.2-0.2,2.2-0.5,3.2c-0.3,1-0.7,1.8-1.3,2.5c-0.5,0.7-1.1,1.4-1.8,1.9
		c-0.7,0.5-1.3,1-2,1.3l7.4,14.3H382.4z M381.9,52.4c0-0.9-0.3-1.7-1-2.4c-0.6-0.7-1.5-1.1-2.7-1.1h-4.8v6.9h4.8
		c1.2,0,2-0.4,2.7-1.1C381.6,54.1,381.9,53.3,381.9,52.4z"/>
	<path class="st0" d="M416.5,75.6l-1.6-5.1h-10.5l-1.7,5.1h-8.8l12.4-34.2h6.5l12.4,34.2H416.5z M409.8,54.4l-3.1,9.1h6L409.8,54.4z
		"/>
	<path class="st0" d="M455.1,58.5c0,1.3,0,2.6,0,3.9c0,1.2-0.1,2.4-0.3,3.5c-0.2,1.1-0.5,2.2-1,3.3c-0.5,1.1-1.2,2.1-2.2,3.1
		c-1.2,1.2-2.6,2-4.2,2.6c-1.6,0.5-3.3,0.8-5.1,0.8h-12.7V41.4h12.7c1.8,0,3.5,0.3,5.1,0.8c1.6,0.5,3,1.4,4.2,2.6c1,1,1.7,2,2.2,3.1
		c0.5,1.1,0.8,2.1,1,3.3c0.2,1.1,0.3,2.3,0.3,3.5C455.1,55.9,455.1,57.2,455.1,58.5z M446.7,58.5c0-1.4,0-2.6,0-3.5
		c0-0.9-0.1-1.6-0.1-2.1c-0.1-0.5-0.2-0.9-0.3-1.2c-0.1-0.3-0.3-0.6-0.4-0.8c-0.4-0.6-0.9-1-1.5-1.4c-0.6-0.4-1.5-0.5-2.5-0.5h-3.7
		v19.2h3.7c1.1,0,1.9-0.2,2.5-0.5c0.6-0.4,1.1-0.8,1.5-1.4c0.2-0.3,0.3-0.5,0.4-0.8c0.1-0.3,0.2-0.7,0.3-1.2
		c0.1-0.5,0.1-1.3,0.1-2.2C446.7,61.1,446.7,59.9,446.7,58.5z"/>
	<path class="st0" d="M486.9,58.5c0,1.3,0,2.5,0,3.8c0,1.2-0.1,2.4-0.3,3.6c-0.2,1.2-0.6,2.3-1,3.3c-0.5,1-1.2,2-2.1,2.9
		c-1.2,1.2-2.6,2.2-4.1,2.9c-1.5,0.7-3.3,1-5.4,1s-3.9-0.3-5.4-1c-1.5-0.7-2.9-1.6-4.1-2.9c-0.9-0.9-1.6-1.9-2.1-2.9
		c-0.5-1-0.8-2.1-1-3.3c-0.2-1.2-0.3-2.3-0.3-3.6c0-1.2,0-2.5,0-3.8c0-1.3,0-2.5,0-3.8c0-1.2,0.1-2.4,0.3-3.6c0.2-1.2,0.6-2.2,1-3.3
		c0.5-1,1.2-2,2.1-2.9c1.2-1.2,2.6-2.2,4.1-2.9c1.5-0.7,3.3-1,5.4-1s3.9,0.3,5.4,1c1.5,0.7,2.9,1.6,4.1,2.9c0.9,0.9,1.6,1.9,2.1,2.9
		c0.5,1,0.8,2.1,1,3.3c0.2,1.2,0.3,2.3,0.3,3.6C486.8,56,486.9,57.2,486.9,58.5z M478.4,58.5c0-1.6,0-2.8-0.1-3.8
		c-0.1-1-0.1-1.8-0.2-2.4c-0.1-0.6-0.2-1-0.4-1.4c-0.2-0.3-0.3-0.6-0.5-0.9c-0.3-0.4-0.8-0.8-1.3-1.1c-0.6-0.3-1.2-0.4-2-0.4
		s-1.4,0.1-2,0.4c-0.6,0.3-1,0.6-1.3,1.1c-0.2,0.3-0.4,0.5-0.5,0.9c-0.2,0.3-0.3,0.8-0.4,1.4c-0.1,0.6-0.2,1.4-0.2,2.4
		c-0.1,1-0.1,2.3-0.1,3.8c0,1.6,0,2.8,0.1,3.8c0.1,1,0.1,1.7,0.2,2.3c0.1,0.6,0.2,1,0.4,1.4c0.2,0.3,0.3,0.6,0.5,0.9
		c0.3,0.4,0.8,0.8,1.3,1.1c0.6,0.3,1.2,0.5,2,0.5s1.4-0.2,2-0.5c0.6-0.3,1-0.7,1.3-1.1c0.2-0.3,0.4-0.5,0.5-0.9
		c0.2-0.3,0.3-0.8,0.4-1.4c0.1-0.6,0.2-1.4,0.2-2.3C478.4,61.3,478.4,60.1,478.4,58.5z"/>
	<path class="st0" d="M510.9,75.6l-6.1-12.7H502v12.7h-8.4V41.4h13.5c1.9,0,3.6,0.3,5,0.9c1.5,0.6,2.7,1.4,3.7,2.5
		c1,1,1.7,2.2,2.2,3.5c0.5,1.3,0.7,2.7,0.7,4.1c0,1.2-0.2,2.2-0.5,3.2c-0.3,1-0.7,1.8-1.3,2.5c-0.5,0.7-1.1,1.4-1.8,1.9
		c-0.7,0.5-1.3,1-2,1.3l7.4,14.3H510.9z M510.4,52.4c0-0.9-0.3-1.7-1-2.4c-0.6-0.7-1.5-1.1-2.7-1.1H502v6.9h4.8c1.2,0,2-0.4,2.7-1.1
		C510.1,54.1,510.4,53.3,510.4,52.4z"/>
	<path class="st0" d="M525.9,75.6V41.4h8.4v34.2H525.9z"/>
	<path class="st0" d="M561.3,75.6l-1.6-5.1h-10.5l-1.7,5.1h-8.8l12.4-34.2h6.5l12.4,34.2H561.3z M554.6,54.4l-3.1,9.1h6L554.6,54.4z
		"/>
	<g class="st1">
		<path class="st2" d="M221.2,94.1c-7.1,6.9-16.3,11.8-27,13.7c0,0,0.1,0,0.1,0C205,105.8,214.2,100.9,221.2,94.1z"/>
		<path class="st2" d="M132.9,65.9c-5-28.3,14.2-54.8,42.5-59.9c28.3-5.1,55.1,13.9,60.2,42.2c3.1,17.7-2.7,34.5-14.3,45.9
			c11.9-11.5,17.8-28.5,14.6-46.4C230.8,19.1,203.7,0,175,5.1c-28.7,5.1-48.1,31.9-43,60.5c5.1,28.6,33.4,47.4,62.1,42.2
			c0,0,0.1,0,0.1,0C165.9,112.8,137.9,94.2,132.9,65.9z"/>
	</g>
	<path class="st3" d="M174.2,2.9C203.8-2.4,232.7,17,238,46.5c0,0,0-0.1,0-0.1c-5.5-30.8-34.2-49.2-63.9-43.9
		c-29.7,5.3-49.8,33-44.6,62.7c0,0,0,0.1,0,0.1C124.4,35.8,144.5,8.2,174.2,2.9z"/>
	<g>
		<defs>
			<ellipse id="SVGID_1_" cx="183.5" cy="56.5" rx="53.2" ry="52.5"/>
		</defs>
		<clipPath id="SVGID_2_">
			<use xlink:href="#SVGID_1_"  style="overflow:visible;"/>
		</clipPath>
		<g class="st4">
			<path class="st0" d="M229.5,45.2c-0.1,3.5-0.7,6.7-1.9,9.9c-1.2,3.1-3.1,5.9-5.5,8.4c-2.5,2.5-5.5,4.6-9.2,6.2
				c-3.7,1.6-7.9,2.5-12.6,2.5c-5.2,0-7.8,0-13.2,0.1c-0.3,11.3-0.5,22.6-0.7,33.8c-8.6,0-12.9-0.3-21.8-1.9
				c0.1-30.1,0.6-60.2,0.7-90.2c12-3.2,24.5-3.7,36.7-2.1c4.8,0.6,9,2.2,12.4,4.6c3.5,2.4,6.3,5.2,8.6,8.3c2.2,3.1,3.9,6.5,5,10
				C229,38.3,229.6,41.7,229.5,45.2z M209.4,42.7c0.1-2.4-0.6-4.6-2.2-6.7c-1.5-2.1-3.8-3.3-6.7-3.5c-4.9-0.4-7.4-0.5-12.4-0.6
				c-0.2,7.7-0.3,11.6-0.5,19.3c5,0,7.5,0.1,12.3,0.3c2.9,0.1,5.2-0.7,6.9-2.5C208.5,47.2,209.3,45.1,209.4,42.7z"/>
		</g>
	</g>
	<path class="st2" d="M238,46.6c-5.3-29.5-34.2-49-63.9-43.7c-29.7,5.3-49.9,32.9-44.6,62.4c5.3,29.5,34.6,48.8,64.3,43.5
		S243.3,76.1,238,46.6z M193.9,107.8c-29.2,5.2-58-13.8-63.2-42.8c-5.2-29,14.7-56.1,43.8-61.4c29.2-5.2,56.8,14.1,61.9,43.1
		C241.7,75.8,223.1,102.6,193.9,107.8z"/>
	<g class="st5">
		<path class="st2" d="M132,65.5c-5.1-28.6,14.3-55.3,43-60.5c28.7-5.1,55.8,14,60.8,42.6c4.1,23.3-7.1,45.1-26.9,55.2
			c20.2-10.2,31.8-32.4,27.6-56c-5.2-29-32.7-48.4-61.9-43.1c-29.2,5.2-49,32.4-43.8,61.4c5.2,29,34,48,63.2,42.8c0,0,0.1,0,0.1,0
			C165.4,112.9,137.1,94.1,132,65.5z"/>
		<path class="st2" d="M208.9,102.8c-4.6,2.3-9.6,4-14.9,5c0,0,0.1,0,0.1,0C199.4,106.8,204.4,105.1,208.9,102.8z"/>
	</g>
	<path class="st6" d="M104.3,68.4l3.3,13.6c0.2,0.7-0.3,1.5-1,1.6l-0.8,0.2l-3.9-16.2l0.8-0.2C103.4,67.2,104.1,67.7,104.3,68.4z"/>
	<path class="st6" d="M110.7,81.2l-3.3-13.6c-0.2-0.7-0.9-1.2-1.6-1l-0.3,0.1l-0.2,0l0,0l0,0c-0.7,0.2-1.1,0.9-1,1.6l3.3,13.6
		c0.2,0.7,0.9,1.1,1.6,1l0,0l0,0l0.2,0l0.3-0.1C110.4,82.7,110.9,81.9,110.7,81.2z"/>
	<path class="st6" d="M123.3,63.8l3.3,13.6c0.2,0.7,0.9,1.2,1.6,1l0.3-0.1l0.2,0l0,0l0,0c0.7-0.2,1.1-0.9,1-1.6L126.5,63
		c-0.2-0.7-0.9-1.1-1.6-1l0,0l0,0l-0.2,0l-0.3,0.1C123.6,62.3,123.2,63.1,123.3,63.8z"/>
	<path class="st6" d="M120.2,64.6l3.3,13.6c0.2,0.7,0.9,1.2,1.6,1l0.3-0.1l0.2,0l0,0l0,0c0.7-0.2,1.1-0.9,1-1.6l-3.3-13.6
		c-0.2-0.7-0.9-1.1-1.6-1l0,0l0,0l-0.2,0l-0.3,0.1C120.5,63.1,120,63.8,120.2,64.6z"/>
	
		<rect x="108.5" y="66.3" transform="matrix(0.2336 0.9723 -0.9723 0.2336 159.3399 -56.3931)" class="st6" width="14" height="13.1"/>
	<path class="st6" d="M128.7,61.8c0-0.2,0.1-0.7-0.8-0.5l-0.4,0.1c-0.7,0.2-1.2,0.9-1,1.6l3.3,13.6c0.2,0.7,0.9,1.2,1.6,1l0.4-0.1
		c1-0.3,1.1-1,1-1.2L128.7,61.8z"/>
	<path class="st7" d="M206,110.7c0.2-0.1,0.4-0.2,0.6-0.3C206.4,110.5,206.2,110.6,206,110.7C206,110.7,206,110.7,206,110.7z"/>
	<path class="st7" d="M192.8,114.9C192.9,114.9,192.9,114.9,192.8,114.9C192.9,114.9,192.8,114.9,192.8,114.9
		C192.8,114.9,192.8,114.9,192.8,114.9z"/>
	<path class="st7" d="M192.3,115C192.3,115,192.3,115,192.3,115C192.4,115,192.4,115,192.3,115C192.3,115,192.3,115,192.3,115z"/>
	<path class="st7" d="M139,49.8l-6.4-0.1c-1.2,4.1-1.9,8.3-2,12.7l0.1,0c-0.1,3.2,0.2,6.5,0.8,9.8c0.4,2.1,13.2,26,33.9,33.1
		c35.5,12.2,57.5-11.8,57.5-11.8c7-7.3,10.8-13.9,11.9-22.1l-4.9,1.5L139,49.8z M234.6,71.6c0,0.2-0.1,0.4-0.1,0.6
		C234.5,72,234.5,71.8,234.6,71.6z M234.3,73.6c0,0.2-0.1,0.4-0.1,0.5C234.2,73.9,234.2,73.8,234.3,73.6z"/>
	<path class="st7" d="M212.4,107.1c0,0,0.1-0.1,0.1-0.1C212.5,107,212.5,107,212.4,107.1C212.5,107.1,212.4,107.1,212.4,107.1z"/>
	<path class="st8" d="M211.6,107.6c0.2-0.1,0.3-0.2,0.5-0.3c0,0,0.1-0.1,0.1-0.1C212,107.3,211.8,107.5,211.6,107.6
		C211.6,107.6,211.6,107.6,211.6,107.6z"/>
	<path class="st8" d="M216.8,103.9c-0.7,0.6-1.4,1.1-2.2,1.7C215.4,105,216.1,104.4,216.8,103.9z"/>
	<path class="st8" d="M233.2,79.7c0,0.2-0.1,0.3-0.1,0.5C233.1,80,233.2,79.9,233.2,79.7c-7.4,14.7-21.6,25.9-39.4,29
		c-23.6,4.2-47-7.1-58.2-26.8l-1.4,0.8c-0.8-1.6-1.6-3.3-2.3-5c0,0,0,0,0,0l-0.4,0.1c-0.1,0-0.3,0-0.4,0c-0.4,0-0.8-0.1-1.1-0.4
		c-0.2,0.4-0.4,0.7-0.8,0.8l0,0l-0.9,0.2c-0.1,0-0.3,0-0.4,0c-0.4,0-0.8-0.1-1.1-0.4c-0.2,0.4-0.4,0.7-0.8,0.8l0,0l-0.9,0.2
		c-0.1,0-0.3,0-0.4,0c-0.7,0-1.3-0.4-1.5-1L111,81.4c0,0.8-0.5,1.5-1.3,1.7l-0.9,0.2l0,0c-0.4,0-0.8-0.1-1.1-0.4
		c0,0.1-0.1,0.1-0.1,0.2c-0.2,0.4-0.6,0.7-1,0.8L106,84c0.1,0.8-0.5,1.6-1.3,1.8l-90.7,21.8c-0.8,0.2-1.6,0.3-2.4,0.3
		c-1.8,0-3.7-0.5-5.3-1.5c-2.3-1.4-3.9-3.6-4.6-6.3c-0.1-0.2-0.1-0.5-0.1-0.7c-0.1,0.1-0.2,0.2-0.2,0.4c-1.4,2.3-1.8,5-1.2,7.7
		s2.3,4.9,4.6,6.3c1.6,1,3.4,1.5,5.3,1.5c0.8,0,1.6-0.1,2.4-0.3l90.7-21.8c0.8-0.2,1.4-1,1.3-1.8l0.6-0.1c0.4-0.1,0.8-0.4,1-0.8
		c0-0.1,0.1-0.1,0.1-0.2c0.3,0.2,0.7,0.4,1.1,0.4l0,0l0.9-0.2c0.8-0.2,1.3-0.9,1.3-1.7l12.2-2.9c0.3,0.6,0.9,1,1.5,1
		c0.1,0,0.3,0,0.4,0l0.9-0.2l0,0c0.4-0.2,0.6-0.5,0.8-0.8c0.3,0.2,0.7,0.4,1.1,0.4c0.1,0,0.3,0,0.4,0l0.9-0.2l0,0
		c0.4-0.2,0.6-0.5,0.8-0.8c0.3,0.2,0.7,0.4,1.1,0.4c0.1,0,0.3,0,0.4,0l0.4-0.1c0,0,0,0,0,0c0.7,1.7,1.5,3.4,2.3,5l1.4-0.8
		c11.2,19.7,34.6,31,58.2,26.8c23.8-4.3,41.2-22.8,44.5-45.1C235.8,74,234.6,76.9,233.2,79.7z M135.9,88.4c0.1,0.1,0.2,0.3,0.2,0.4
		C136.1,88.7,136,88.6,135.9,88.4z M136.6,89.6c0.1,0.1,0.1,0.3,0.2,0.4C136.7,89.8,136.6,89.7,136.6,89.6z M137.2,90.7
		c0.1,0.1,0.2,0.3,0.2,0.4C137.4,90.9,137.3,90.8,137.2,90.7z M138,91.8c0.1,0.1,0.1,0.2,0.2,0.3C138.1,92,138,91.9,138,91.8z
		 M138.7,92.9c0.1,0.1,0.1,0.2,0.2,0.3C138.8,93.1,138.8,93,138.7,92.9z M139.5,94c0.1,0.1,0.1,0.2,0.2,0.2
		C139.6,94.1,139.5,94.1,139.5,94z M140.3,95c0.1,0.1,0.1,0.1,0.2,0.2C140.4,95.2,140.3,95.1,140.3,95z M141.1,96
		c0.1,0.1,0.1,0.1,0.2,0.2C141.2,96.2,141.1,96.1,141.1,96z M141.9,97c0.1,0.1,0.1,0.1,0.2,0.2C142,97.2,142,97.1,141.9,97z
		 M142.8,98c0.1,0.1,0.1,0.1,0.1,0.2C142.9,98.1,142.8,98.1,142.8,98z M143.6,99c0,0,0.1,0.1,0.1,0.1C143.7,99.1,143.7,99,143.6,99z
		 M144.6,99.9c0,0,0.1,0.1,0.1,0.1C144.6,100,144.6,100,144.6,99.9z M145.5,100.8C145.5,100.9,145.6,100.9,145.5,100.8
		C145.6,100.9,145.5,100.9,145.5,100.8z M146.4,101.7C146.5,101.7,146.5,101.8,146.4,101.7C146.5,101.8,146.5,101.7,146.4,101.7z
		 M147.4,102.6C147.4,102.6,147.4,102.6,147.4,102.6C147.4,102.6,147.4,102.6,147.4,102.6z M148.4,103.4
		C148.4,103.4,148.4,103.4,148.4,103.4C148.4,103.4,148.4,103.4,148.4,103.4z M149.4,104.2C149.4,104.2,149.4,104.2,149.4,104.2
		C149.4,104.2,149.4,104.2,149.4,104.2z M150.4,105C150.5,105,150.5,105,150.4,105C150.5,105,150.5,105,150.4,105z M192.3,115
		C192.3,115,192.3,115,192.3,115C192.4,115,192.4,115,192.3,115C192.3,115,192.3,115,192.3,115z M192.8,114.9
		C192.8,114.9,192.8,114.9,192.8,114.9C192.8,114.9,192.9,114.9,192.8,114.9C192.9,114.9,192.9,114.9,192.8,114.9z M193.4,114.8
		c0.1,0,0.2,0,0.3-0.1C193.6,114.8,193.5,114.8,193.4,114.8z M231.4,83.6c-0.1,0.1-0.1,0.3-0.2,0.4
		C231.3,83.9,231.4,83.7,231.4,83.6z M225.6,94.3C225.6,94.3,225.6,94.3,225.6,94.3C225.6,94.3,225.6,94.3,225.6,94.3z M224.5,95.8
		c-0.1,0.1-0.2,0.3-0.3,0.4C224.3,96,224.4,95.9,224.5,95.8z M223.3,97.2c-0.1,0.1-0.2,0.3-0.3,0.4
		C223.1,97.5,223.2,97.4,223.3,97.2z M221.9,98.9C221.9,98.9,221.8,99,221.9,98.9C221.8,99,221.9,98.9,221.9,98.9z M220.5,100.4
		c-0.1,0.1-0.2,0.2-0.3,0.3C220.3,100.5,220.4,100.5,220.5,100.4z M219.2,101.7c-0.1,0.1-0.2,0.2-0.3,0.3
		C219,101.9,219.1,101.8,219.2,101.7z M206,110.7C206,110.7,206,110.7,206,110.7c0.1-0.1,0.4-0.2,0.6-0.3
		C206.4,110.5,206.2,110.6,206,110.7z M207.4,110c0,0,0.1,0,0.1-0.1C207.5,110,207.4,110,207.4,110z M212.1,107.3
		c-0.2,0.1-0.3,0.2-0.5,0.3c0,0-0.1,0-0.1,0c0.2-0.2,0.5-0.3,0.7-0.5C212.2,107.2,212.2,107.2,212.1,107.3z M212.4,107.1
		C212.4,107.1,212.5,107.1,212.4,107.1c0.1,0,0.1-0.1,0.1-0.1C212.5,107,212.5,107,212.4,107.1z M212.8,106.8
		c0.2-0.1,0.4-0.3,0.7-0.5C213.2,106.5,213,106.7,212.8,106.8z M213.7,106.2c0.2-0.2,0.4-0.3,0.6-0.5
		C214.2,105.9,214,106,213.7,106.2z M214.6,105.5c0.7-0.5,1.5-1.1,2.2-1.7C216.1,104.4,215.4,105,214.6,105.5z M216.9,103.8
		c0.2-0.2,0.4-0.3,0.6-0.5C217.3,103.4,217.1,103.6,216.9,103.8z M217.8,103c0.2-0.2,0.4-0.3,0.6-0.5
		C218.2,102.7,218,102.9,217.8,103z M218.6,102.3c0.2-0.2,0.4-0.3,0.6-0.5C219,101.9,218.8,102.1,218.6,102.3z M219.4,101.6
		c0.6-0.6,1.3-1.2,1.9-1.8C220.7,100.4,220,101,219.4,101.6z M221.5,99.5c0.2-0.2,0.3-0.4,0.5-0.5C221.8,99.1,221.7,99.3,221.5,99.5
		z M222.3,98.7c0.2-0.2,0.3-0.4,0.5-0.5C222.6,98.3,222.4,98.5,222.3,98.7z M223,97.8c0.2-0.2,0.3-0.4,0.5-0.6
		C223.3,97.5,223.2,97.7,223,97.8z M223.5,97.3c0.4-0.4,0.7-0.9,1.1-1.3C224.2,96.4,223.9,96.8,223.5,97.3z M224.8,95.6
		c0.1-0.2,0.3-0.4,0.4-0.5C225.1,95.3,225,95.5,224.8,95.6z M225.5,94.7c0.1-0.2,0.3-0.4,0.4-0.5C225.8,94.4,225.7,94.6,225.5,94.7z
		 M226.2,93.8c0.1-0.2,0.3-0.4,0.4-0.5C226.4,93.5,226.3,93.6,226.2,93.8z M226.9,92.4c-0.1,0.1-0.2,0.3-0.3,0.4
		C226.7,92.6,226.8,92.5,226.9,92.4z M226.8,92.9c0.2-0.3,0.5-0.7,0.7-1C227.3,92.2,227.1,92.6,226.8,92.9z M227.9,90.7
		c-0.1,0.2-0.2,0.3-0.3,0.5C227.7,91,227.8,90.9,227.9,90.7z M227.8,91.5c0.1-0.2,0.2-0.4,0.3-0.5C228,91.1,227.9,91.3,227.8,91.5z
		 M228.3,90.5c0.1-0.2,0.2-0.4,0.3-0.5C228.6,90.2,228.5,90.3,228.3,90.5z M228.7,89.4c0.1-0.1,0.1-0.2,0.2-0.3
		C228.8,89.2,228.7,89.3,228.7,89.4z M228.9,89.5c0.1-0.2,0.2-0.4,0.3-0.5C229.1,89.2,229,89.3,228.9,89.5z M229.5,88.5
		c0.1-0.2,0.2-0.3,0.3-0.5C229.7,88.2,229.6,88.3,229.5,88.5z M229.7,87.5c0.1-0.1,0.1-0.2,0.2-0.4
		C229.8,87.3,229.7,87.4,229.7,87.5z M230.2,87.1c0.1-0.2,0.2-0.3,0.2-0.5C230.4,86.7,230.3,86.9,230.2,87.1z M230.5,85.8
		c0.1-0.2,0.2-0.3,0.2-0.5C230.6,85.5,230.6,85.7,230.5,85.8z M230.7,86c0.1-0.2,0.2-0.3,0.2-0.5C230.9,85.7,230.8,85.8,230.7,86z
		 M231.2,85c0.1-0.2,0.2-0.3,0.2-0.5C231.4,84.6,231.3,84.8,231.2,85z M231.7,83.9c0.1-0.2,0.1-0.3,0.2-0.5
		C231.8,83.6,231.8,83.7,231.7,83.9z M232.2,82.6c0.1-0.2,0.2-0.4,0.2-0.6C232.4,82.2,232.3,82.4,232.2,82.6z M232.7,81.3
		c0.1-0.2,0.1-0.3,0.2-0.5C232.8,81,232.8,81.1,232.7,81.3z"/>
	<path class="st8" d="M173.8,13.2c28.3-5.1,55.1,13.9,60.2,42.2c1,5.7,1.3,10.5,0.9,14.9c0.3-1.3,0.6-2.7,0.8-4c0-0.1,0-0.1,0-0.2
		c0,0.1,0,0.1,0,0.2c1-5.8,1-11.9-0.1-18.1c-5-28.3-31.8-47.3-60.2-42.2c-13.8,2.5-25.4,10-33.1,20.3c0,0,0,0,0,0c0,0,0,0,0,0
		c-5.1,6.8-8.5,14.8-9.7,23.4C138,31.3,153.5,16.8,173.8,13.2z M235.7,63.6c0-0.1,0-0.3,0-0.4C235.7,63.3,235.7,63.5,235.7,63.6z
		 M235.7,64.5c0,0.1,0,0.3,0,0.4C235.7,64.7,235.7,64.6,235.7,64.5z M235.7,62.4c0-0.1,0-0.3,0-0.4
		C235.7,62.1,235.7,62.2,235.7,62.4z M235.7,61c0-0.1,0-0.2,0-0.3C235.6,60.8,235.6,60.9,235.7,61z M235.6,59.5c0-0.1,0-0.2,0-0.3
		C235.5,59.3,235.5,59.4,235.6,59.5z M235.4,58.2c0-0.1,0-0.3,0-0.4C235.4,57.9,235.4,58.1,235.4,58.2z M235.3,57
		c0-0.1,0-0.3-0.1-0.4C235.3,56.7,235.3,56.8,235.3,57z M235.1,55.7c0-0.1,0-0.3-0.1-0.4C235.1,55.4,235.1,55.5,235.1,55.7z
		 M235.1,63.9c0-0.2,0-0.3,0-0.5C235.1,63.5,235.1,63.7,235.1,63.9z M235.1,65.3c0,0.2,0,0.4,0,0.6
		C235.1,65.7,235.1,65.5,235.1,65.3z M235,61.4c0-0.1,0-0.2,0-0.4C235,61.2,235,61.3,235,61.4z M234.8,59.5c0-0.2,0-0.4-0.1-0.6
		C234.8,59.1,234.8,59.3,234.8,59.5z M234.6,57.4c0-0.2-0.1-0.4-0.1-0.6C234.6,57,234.6,57.2,234.6,57.4z M214.7,19.6
		C214.7,19.6,214.7,19.6,214.7,19.6C214.7,19.6,214.7,19.6,214.7,19.6z M213.6,18.9C213.6,18.9,213.6,18.9,213.6,18.9
		C213.6,18.9,213.6,18.9,213.6,18.9z M212.5,18.2C212.5,18.2,212.5,18.1,212.5,18.2C212.5,18.1,212.5,18.2,212.5,18.2z M211.4,17.5
		C211.4,17.5,211.3,17.4,211.4,17.5C211.3,17.4,211.4,17.5,211.4,17.5z M210.3,16.8C210.2,16.8,210.2,16.8,210.3,16.8
		C210.2,16.8,210.2,16.8,210.3,16.8z M209.1,16.1C209.1,16.1,209,16.1,209.1,16.1C209,16.1,209.1,16.1,209.1,16.1z M208,15.5
		c0,0-0.1,0-0.1-0.1C207.9,15.5,207.9,15.5,208,15.5z M206.8,14.9c0,0-0.1,0-0.1-0.1C206.7,14.9,206.7,14.9,206.8,14.9z M205.6,14.4
		c-0.1,0-0.1-0.1-0.2-0.1C205.5,14.3,205.5,14.3,205.6,14.4z M204.4,13.8c-0.1,0-0.1-0.1-0.2-0.1C204.2,13.8,204.3,13.8,204.4,13.8z
		 M203.2,13.3c-0.1,0-0.1-0.1-0.2-0.1C203,13.3,203.1,13.3,203.2,13.3z M201.9,12.8c-0.1,0-0.2-0.1-0.3-0.1
		C201.8,12.8,201.8,12.8,201.9,12.8z M200.7,12.4c-0.1,0-0.2-0.1-0.3-0.1C200.5,12.3,200.6,12.4,200.7,12.4z M199.4,12
		c-0.1,0-0.2-0.1-0.3-0.1C199.2,11.9,199.3,11.9,199.4,12z M198.2,11.6c-0.1,0-0.2-0.1-0.3-0.1C197.9,11.5,198,11.5,198.2,11.6z
		 M196.9,11.2c-0.1,0-0.3-0.1-0.4-0.1C196.6,11.2,196.8,11.2,196.9,11.2z M195.6,10.9c-0.1,0-0.3-0.1-0.4-0.1
		C195.3,10.8,195.5,10.9,195.6,10.9z M194.3,10.6c-0.1,0-0.3-0.1-0.4-0.1C194,10.5,194.2,10.5,194.3,10.6z M193,10.3
		c-0.1,0-0.3-0.1-0.4-0.1C192.7,10.3,192.8,10.3,193,10.3z M191.7,10.1c-0.2,0-0.3,0-0.5-0.1C191.3,10,191.5,10,191.7,10.1z
		 M190.3,9.9c-0.2,0-0.3,0-0.5-0.1C190,9.8,190.2,9.8,190.3,9.9z M189,9.7c-0.2,0-0.4,0-0.6-0.1C188.6,9.6,188.8,9.7,189,9.7z
		 M187.7,9.5c-0.2,0-0.4,0-0.6,0C187.3,9.5,187.5,9.5,187.7,9.5z M186.3,9.4c-0.2,0-0.4,0-0.6,0C185.9,9.4,186.1,9.4,186.3,9.4z
		 M185,9.3c-0.2,0-0.4,0-0.6,0C184.6,9.3,184.8,9.3,185,9.3z M183.6,9.3c-0.2,0-0.4,0-0.6,0C183.2,9.3,183.4,9.3,183.6,9.3z
		 M182.2,9.3c-0.2,0-0.4,0-0.7,0C181.8,9.3,182,9.3,182.2,9.3z M180.9,9.3c-0.2,0-0.4,0-0.7,0C180.4,9.3,180.6,9.3,180.9,9.3z
		 M179.5,9.4c-0.2,0-0.4,0-0.7,0C179,9.4,179.3,9.4,179.5,9.4z M178.1,9.4c-0.2,0-0.5,0-0.7,0.1C177.6,9.5,177.9,9.5,178.1,9.4z
		 M176.7,9.6c-0.3,0-0.6,0.1-0.9,0.1C176.1,9.6,176.4,9.6,176.7,9.6z M175.3,9.7c-0.3,0-0.6,0.1-0.9,0.1
		C174.7,9.8,175,9.8,175.3,9.7z M172.5,10.2c0.5-0.1,0.9-0.2,1.4-0.2C173.5,10,173,10.1,172.5,10.2c-0.5,0.1-0.9,0.2-1.4,0.3
		C171.6,10.3,172.1,10.2,172.5,10.2z M170.4,10.6c-0.2,0-0.4,0.1-0.6,0.1C170,10.7,170.2,10.6,170.4,10.6z M169,10.9
		c-0.2,0-0.4,0.1-0.5,0.1C168.6,11,168.8,11,169,10.9z M167.6,11.3c-0.2,0-0.4,0.1-0.5,0.1C167.3,11.4,167.5,11.3,167.6,11.3z
		 M166.3,11.6c-0.2,0.1-0.4,0.1-0.5,0.2C166,11.7,166.1,11.7,166.3,11.6z M165,12.1c-0.2,0.1-0.3,0.1-0.5,0.2
		C164.6,12.2,164.8,12.1,165,12.1z M163.6,12.5c-0.2,0.1-0.3,0.1-0.5,0.2C163.3,12.6,163.5,12.6,163.6,12.5z M162.4,13
		c-0.2,0.1-0.3,0.1-0.5,0.2C162.1,13.1,162.2,13,162.4,13z M161.1,13.5c-0.2,0.1-0.3,0.1-0.5,0.2C160.8,13.6,160.9,13.5,161.1,13.5z
		 M159.8,14c-0.1,0.1-0.3,0.1-0.4,0.2C159.5,14.1,159.7,14.1,159.8,14z M158.6,14.6c-0.1,0.1-0.3,0.1-0.4,0.2
		C158.3,14.7,158.5,14.6,158.6,14.6z M157.3,15.2c-0.1,0.1-0.2,0.1-0.4,0.2C157.1,15.3,157.2,15.2,157.3,15.2z M156.1,15.8
		c-0.1,0.1-0.2,0.1-0.4,0.2C155.9,15.9,156,15.8,156.1,15.8z M155,16.4c-0.1,0.1-0.2,0.1-0.3,0.2C154.7,16.6,154.8,16.5,155,16.4z
		 M153.8,17.1c-0.1,0.1-0.2,0.1-0.3,0.2C153.6,17.2,153.7,17.2,153.8,17.1z M152.6,17.8c-0.1,0.1-0.2,0.1-0.3,0.2
		C152.4,17.9,152.5,17.9,152.6,17.8z M151.5,18.5c-0.1,0.1-0.2,0.1-0.3,0.2C151.3,18.6,151.4,18.6,151.5,18.5z M150.4,19.3
		c-0.1,0.1-0.2,0.1-0.3,0.2C150.2,19.4,150.3,19.3,150.4,19.3z M149.3,20.1c-0.1,0.1-0.1,0.1-0.2,0.2
		C149.1,20.2,149.2,20.1,149.3,20.1z M148.2,20.9c-0.1,0.1-0.1,0.1-0.2,0.2C148.1,21,148.2,20.9,148.2,20.9z M147.2,21.7
		c-0.1,0.1-0.1,0.1-0.2,0.2C147.1,21.8,147.1,21.7,147.2,21.7z M146.2,22.5c-0.1,0.1-0.1,0.1-0.2,0.1
		C146,22.6,146.1,22.6,146.2,22.5z M143.1,25.3c0,0,0.1-0.1,0.1-0.1C143.2,25.3,143.1,25.3,143.1,25.3z M144,24.4
		c0.1,0,0.1-0.1,0.2-0.1C144.1,24.3,144.1,24.4,144,24.4z M145.2,23.4c-0.1,0.1-0.1,0.1-0.2,0.1C145,23.5,145.1,23.4,145.2,23.4z"/>
	<g class="st9">
		<defs>
			<ellipse id="SVGID_3_" class="st9" cx="183.5" cy="56.5" rx="53.2" ry="52.5"/>
		</defs>
		<clipPath id="SVGID_4_">
			<use xlink:href="#SVGID_3_"  style="overflow:visible;"/>
		</clipPath>
		<g class="st10">
			<path class="st0" d="M229.5,45.2c-0.1,3.5-0.7,6.7-1.9,9.9c-1.2,3.1-3.1,5.9-5.5,8.4c-2.5,2.5-5.5,4.6-9.2,6.2
				c-3.7,1.6-7.9,2.5-12.6,2.5c-5.2,0-7.8,0-13.2,0.1c-0.3,11.3-0.5,22.6-0.7,33.8c-8.6,0-12.9-0.3-21.8-1.9
				c0.1-30.1,0.6-60.2,0.7-90.2c12-3.2,24.5-3.7,36.7-2.1c4.8,0.6,9,2.2,12.4,4.6c3.5,2.4,6.3,5.2,8.6,8.3c2.2,3.1,3.9,6.5,5,10
				C229,38.3,229.6,41.7,229.5,45.2z M209.4,42.7c0.1-2.4-0.6-4.6-2.2-6.7c-1.5-2.1-3.8-3.3-6.7-3.5c-4.9-0.4-7.4-0.5-12.4-0.6
				c-0.2,7.7-0.3,11.6-0.5,19.3c5,0,7.5,0.1,12.3,0.3c2.9,0.1,5.2-0.7,6.9-2.5C208.5,47.2,209.3,45.1,209.4,42.7z"/>
		</g>
	</g>
	<g>
		<defs>
			
				<rect id="SVGID_5_" x="108.5" y="66.3" transform="matrix(0.2336 0.9723 -0.9723 0.2336 159.3399 -56.3931)" width="14" height="13.1"/>
		</defs>
		<clipPath id="SVGID_6_">
			<use xlink:href="#SVGID_5_"  style="overflow:visible;"/>
		</clipPath>
		<g class="st11">
			<polygon class="st12" points="101.9,71.9 130.8,65.1 131.9,69.4 101,76.8 			"/>
			<polygon class="st13" points="103.3,73.3 129.7,67 130,68.2 103,74.7 			"/>
		</g>
	</g>
	<g>
		<defs>
			<path id="SVGID_7_" d="M110.7,81.2l-3.3-13.6c-0.2-0.7-0.9-1.2-1.6-1l-0.3,0.1l-0.2,0l0,0l0,0c-0.7,0.2-1.1,0.9-1,1.6l3.3,13.6
				c0.2,0.7,0.9,1.1,1.6,1l0,0l0,0l0.2,0l0.3-0.1C110.4,82.7,110.9,81.9,110.7,81.2z"/>
		</defs>
		<clipPath id="SVGID_8_">
			<use xlink:href="#SVGID_7_"  style="overflow:visible;"/>
		</clipPath>
		<g class="st14">
			<defs>
				<path id="SVGID_9_" d="M104.3,68.4l3.3,13.6c0.2,0.7-0.3,1.5-1,1.6l-0.8,0.2l-3.9-16.2l0.8-0.2
					C103.4,67.2,104.1,67.7,104.3,68.4z"/>
			</defs>
			<clipPath id="SVGID_10_">
				<use xlink:href="#SVGID_9_"  style="overflow:visible;"/>
			</clipPath>
			<g class="st15">
				<polygon class="st12" points="101.7,71.2 130.6,64.4 131.6,68.7 100.7,76.1 				"/>
				<polygon class="st13" points="103,72.5 129.4,66.3 129.7,67.5 102.8,73.9 				"/>
			</g>
		</g>
	</g>
	<g>
		<defs>
			<path id="SVGID_11_" d="M123.3,63.8l3.3,13.6c0.2,0.7,0.9,1.2,1.6,1l0.3-0.1l0.2,0l0,0l0,0c0.7-0.2,1.1-0.9,1-1.6L126.5,63
				c-0.2-0.7-0.9-1.1-1.6-1l0,0l0,0l-0.2,0l-0.3,0.1C123.6,62.3,123.2,63.1,123.3,63.8z"/>
		</defs>
		<clipPath id="SVGID_12_">
			<use xlink:href="#SVGID_11_"  style="overflow:visible;"/>
		</clipPath>
		<g class="st16">
			<polygon class="st12" points="101.7,71.2 130.6,64.4 131.6,68.7 100.7,76.1 			"/>
			<polygon class="st13" points="103,72.5 129.4,66.3 129.7,67.5 102.8,73.9 			"/>
		</g>
	</g>
	<g>
		<defs>
			<path id="SVGID_13_" d="M128.7,61.8c0-0.2,0.1-0.7-0.8-0.5l-0.4,0.1c-0.7,0.2-1.2,0.9-1,1.6l3.3,13.6c0.2,0.7,0.9,1.2,1.6,1
				l0.4-0.1c1-0.3,1.1-1,1-1.2L128.7,61.8z"/>
		</defs>
		<clipPath id="SVGID_14_">
			<use xlink:href="#SVGID_13_"  style="overflow:visible;"/>
		</clipPath>
		<g class="st17">
			<defs>
				<path id="SVGID_15_" d="M120.2,64.6l3.3,13.6c0.2,0.7,0.9,1.2,1.6,1l0.3-0.1l0.2,0l0,0l0,0c0.7-0.2,1.1-0.9,1-1.6l-3.3-13.6
					c-0.2-0.7-0.9-1.1-1.6-1l0,0l0,0l-0.2,0l-0.3,0.1C120.5,63.1,120,63.8,120.2,64.6z"/>
			</defs>
			<clipPath id="SVGID_16_">
				<use xlink:href="#SVGID_15_"  style="overflow:visible;"/>
			</clipPath>
			<g class="st18">
				<polygon class="st12" points="101.7,71.2 130.6,64.4 131.6,68.7 100.7,76.1 				"/>
				<polygon class="st13" points="103,72.5 129.4,66.3 129.7,67.5 102.8,73.9 				"/>
			</g>
		</g>
	</g>
	<g>
		<defs>
			<path id="SVGID_17_" d="M128.7,61.8c0-0.2,0.1-0.7-0.8-0.5l-0.4,0.1c-0.7,0.2-1.2,0.9-1,1.6l3.3,13.6c0.2,0.7,0.9,1.2,1.6,1
				l0.4-0.1c1-0.3,1.1-1,1-1.2L128.7,61.8z"/>
		</defs>
		<clipPath id="SVGID_18_">
			<use xlink:href="#SVGID_17_"  style="overflow:visible;"/>
		</clipPath>
		<g class="st19">
			<polygon class="st12" points="101.7,71.2 130.6,64.4 131.6,68.7 100.7,76.1 			"/>
			<polygon class="st13" points="103,72.5 129.4,66.3 129.7,67.5 102.8,73.9 			"/>
		</g>
	</g>
	<g>
		<defs>
			<path id="SVGID_19_" d="M120.2,64.6l3.3,13.6c0.2,0.7,0.9,1.2,1.6,1l0.3-0.1l0.2,0l0,0l0,0c0.7-0.2,1.1-0.9,1-1.6l-3.3-13.6
				c-0.2-0.7-0.9-1.1-1.6-1l0,0l0,0l-0.2,0l-0.3,0.1C120.5,63.1,120,63.8,120.2,64.6z"/>
		</defs>
		<clipPath id="SVGID_20_">
			<use xlink:href="#SVGID_19_"  style="overflow:visible;"/>
		</clipPath>
		<g class="st20">
			<polygon class="st12" points="101.7,71.2 130.6,64.4 131.6,68.7 100.7,76.1 			"/>
			<polygon class="st13" points="103,72.5 129.4,66.3 129.7,67.5 102.8,73.9 			"/>
		</g>
	</g>
	<g>
		<defs>
			<path id="SVGID_21_" d="M110.7,81.2l-3.3-13.6c-0.2-0.7-0.9-1.2-1.6-1l-0.3,0.1l-0.2,0l0,0l0,0c-0.7,0.2-1.1,0.9-1,1.6l3.3,13.6
				c0.2,0.7,0.9,1.1,1.6,1l0,0l0,0l0.2,0l0.3-0.1C110.4,82.7,110.9,81.9,110.7,81.2z"/>
		</defs>
		<clipPath id="SVGID_22_">
			<use xlink:href="#SVGID_21_"  style="overflow:visible;"/>
		</clipPath>
		<g class="st21">
			<polygon class="st12" points="101.7,71.2 130.6,64.4 131.6,68.7 100.7,76.1 			"/>
			<polygon class="st13" points="103,72.5 129.4,66.3 129.7,67.5 102.8,73.9 			"/>
		</g>
	</g>
	<g>
		<defs>
			<path id="SVGID_23_" d="M104.3,68.4l3.3,13.6c0.2,0.7-0.3,1.5-1,1.6l-0.8,0.2l-3.9-16.2l0.8-0.2
				C103.4,67.2,104.1,67.7,104.3,68.4z"/>
		</defs>
		<clipPath id="SVGID_24_">
			<use xlink:href="#SVGID_23_"  style="overflow:visible;"/>
		</clipPath>
		<g class="st22">
			<polygon class="st12" points="101.7,71.2 130.6,64.4 131.6,68.7 100.7,76.1 			"/>
			<polygon class="st13" points="103,72.5 129.4,66.3 129.7,67.5 102.8,73.9 			"/>
		</g>
	</g>
	<path class="st2" d="M106,83.8L102,67.4c-0.2-0.9-1.1-1.5-2.1-1.3L9.3,88c-5.4,1.3-8.8,6.8-7.5,12.2c1.1,4.6,5.3,7.8,9.9,7.8
		c0.8,0,1.6-0.1,2.4-0.3l90.7-21.8c0.4-0.1,0.8-0.4,1.1-0.8C106,84.7,106.1,84.3,106,83.8z"/>
	<path class="st2" d="M137.9,80.9c-2.5-4.7-4.3-9.9-5.3-15.5c-0.6-3.3-0.8-6.6-0.8-9.8l-4.2-0.1c-0.1,3.5,0.2,7,0.8,10.6
		c1,6,3,11.6,5.7,16.7L137.9,80.9z"/>
	<path class="st2" d="M138.3,80.5c-2.5-4.7-4.3-9.9-5.3-15.5c-0.6-3.3-0.8-6.6-0.8-9.8l-3.5-0.1l-1,0.4c0,0,0.6,6.7,1.2,10.2
		c1,6,3,11.6,5.7,16.7l3.3-1.5L138.3,80.5z"/>
	<path class="st0" d="M12,91.5L101.4,70c0.4-0.1,0.9,0,1.3,0.2l0-0.1c-0.2-0.9-1.1-1.5-2.1-1.3l-89,21.4c-4,0.9-7.2,4.2-8,8
		C5.4,93.1,11.6,91.6,12,91.5z"/>
</g>
</svg>
