<?xml version="1.0" encoding="utf-8"?>
<!-- Generator: Adobe Illustrator 22.0.0, SVG Export Plug-In . SVG Version: 6.00 Build 0)  -->
<svg version="1.1" id="Camada_1" xmlns="http://www.w3.org/2000/svg" xmlns:xlink="http://www.w3.org/1999/xlink" x="0px" y="0px"
	 viewBox="0 0 190 237.2" style="enable-background:new 0 0 190 237.2;" xml:space="preserve">
<style type="text/css">
	.st0{fill:#FFFFFF;}
	.st1{fill:#262E50;}
</style>
<g>
	<polygon class="st0" points="0.7,-0.3 0.7,208.1 96.1,237.2 189.3,208.1 189.3,-0.3 	"/>
	<path class="st1" d="M163.1,152.3c-1,0-1.8-0.8-1.8-1.8c0-1,0.8-1.8,1.9-1.9c1,0,1.8,0.8,1.8,1.8
		C164.9,151.5,164.1,152.3,163.1,152.3"/>
	<path class="st1" d="M26.9,152.3c-1,0-1.8-0.8-1.8-1.8c0-1,0.8-1.8,1.9-1.9c1,0,1.8,0.8,1.8,1.8C28.7,151.5,27.9,152.3,26.9,152.3"
		/>
	<rect x="26.9" y="170.9" class="st1" width="134" height="1.5"/>
	<path class="st1" d="M39.5,154.4l-2,5.2c-0.1,0.3-0.2,0.6-0.2,0.9c0,0.9,1.2,0.9,2.3,0.9h0.3v1l-6.8,0v-1c1.9,0,2.6-1.1,3.3-2.7
		l8.4-20.8H46l8.5,21.3c0.5,1.3,1.1,2.1,2.3,2.2h0.5v1l-8.7,0v-1h0.4c0.8,0,2.2,0,2.2-0.9c0-0.4-0.2-0.8-0.5-1.6l-1.8-4.5
		L39.5,154.4z M48.6,153.5l-4.2-10.8l-4.5,10.8L48.6,153.5z"/>
	<path class="st1" d="M72,138.2v1h-1c-2.1,0-2.1,0.8-2.1,2.3l0,19.8h4.9c3.6,0,5.5-1.8,5.6-5.1h1.2v6l-17.6,0v-1h1.3
		c1.2,0,1.5-0.6,1.5-2.5v-16c0-3.3,0-3.7-2-3.7H63v-1L72,138.2z"/>
	<path class="st1" d="M87.1,161.4h1.3c1.2,0,1.5-0.6,1.5-2.5l0-16c0-3.3,0-3.7-2-3.7h-0.8v-1l18.3,0l0,5.6h-1.2c0-3.3-1.8-4.6-5-4.6
		l-6.3,0v10.5l4.2,0c2.8,0,4.4-0.6,4.4-3.7h1.2v8.3h-1.2c0-3.2-2-3.6-3.7-3.6H93l0,10.7h5.9c3.5,0,5.6-0.8,5.7-4.6h1.2v5.6l-18.7,0
		V161.4z"/>
	<path class="st1" d="M114.2,161.4h1.3c1.2,0,1.5-0.6,1.5-2.5l0-16c0-3.3,0-3.7-2-3.7h-0.8v-1h8.9c3.9,0,9.2,0.7,9.2,5.7
		c0,3.4-3.2,5.1-6.1,5.7v0.1c2.4,0.4,4.7,1.7,4.7,4.4v4.8c0,0.7,0,2.3,1.1,2.3c1.1,0,1.3-1,1.7-1.7l1,0.4c-0.7,1.6-1.8,3-3.7,3
		c-2.6,0-3.2-1.6-3.2-4.1v-3.5c0-3.8-1.1-5.1-4.8-5.1h-2.8l0,8.3c0,2.4,0.1,3,1.8,3l1,0v1l-8.7,0V161.4z M120.1,149.2h3.3
		c3,0,5.3-2.1,5.3-5.2c0-3.4-2.1-4.8-5.3-4.8l-3.3,0V149.2z"/>
	<path class="st1" d="M139.1,156.3h1.2c0.1,3.2,1,5.6,3.8,5.6c3.1,0,3.4-2.8,3.4-5.3l0-14.8c0-1.9,0-2.6-1.8-2.6h-1.3v-1l9.1,0v1
		h-1.3c-1.6,0-1.6,0.7-1.6,2.6v12.4c0,4.7-0.9,8.6-6.6,8.6c-1.7,0-3.3-0.2-4.9-0.9V156.3z"/>
	<path class="st1" d="M30.9,181.8c0.1,0.4,0.3,0.8,0.4,1.1l1.8,4.6c0.5,1.2,0.7,1.3,1,1.3h0.1v0.3h-2.8v-0.3h0.2
		c0.5,0,0.5-0.1,0.5-0.3c0-0.1,0-0.3-0.1-0.5l-0.5-1.4h-2.8l-0.4,0.9c-0.2,0.5-0.3,0.7-0.3,0.9c0,0.3,0.3,0.3,0.7,0.3H29v0.3h-2.1
		v-0.3H27c0.3,0,0.6-0.1,0.8-0.7l2.2-5.3c0.1-0.3,0.3-0.7,0.4-1H30.9z M31.5,186.5l-1.2-3.1l-1.3,3.1H31.5z"/>
	<path class="st1" d="M39.1,183.6h-0.4c0-0.9-0.7-1.6-1.6-1.6c-0.9,0-1.6,0.5-1.6,1.4c0,1.6,3.9,1.1,3.9,3.7c0,1.4-1.1,2.2-2.5,2.2
		c-0.4,0-0.8-0.1-1-0.1c-0.3-0.1-0.5-0.1-0.5-0.1c-0.2,0-0.3,0.1-0.3,0.2h-0.4v-2h0.4c0.2,1.1,0.7,1.8,1.9,1.8
		c0.9,0,1.6-0.5,1.6-1.5c0-1.8-3.9-1.4-3.9-3.6c0-1.4,1.1-2.2,2.4-2.2c0.5,0,1.1,0.3,1.4,0.3c0.2,0,0.2-0.1,0.2-0.2h0.3V183.6z"/>
	<path class="st1" d="M45,183.6h-0.4c0-0.9-0.7-1.6-1.6-1.6c-0.9,0-1.6,0.5-1.6,1.4c0,1.6,3.9,1.1,3.9,3.7c0,1.4-1.2,2.2-2.5,2.2
		c-0.4,0-0.8-0.1-1-0.1c-0.3-0.1-0.5-0.1-0.6-0.1c-0.2,0-0.3,0.1-0.3,0.2h-0.4v-2H41c0.2,1.1,0.7,1.8,1.9,1.8c0.9,0,1.6-0.5,1.6-1.5
		c0-1.8-3.9-1.4-3.9-3.6c0-1.4,1.1-2.2,2.4-2.2c0.5,0,1.1,0.3,1.4,0.3c0.2,0,0.2-0.1,0.2-0.2H45V183.6z"/>
	<path class="st1" d="M46.4,188.9h0.4c0.3,0,0.4-0.1,0.4-0.7v-5.3c0-0.6-0.1-0.7-0.5-0.7h-0.4v-0.3h5.6v1.7h-0.4
		c0-1-0.5-1.4-1.5-1.4h-1.8v3.1h1.5c0.7,0,1-0.5,1-1.1h0.4v2.5h-0.4c0-0.7-0.2-1.1-1-1.1h-1.5v3.2h1.9c1,0,1.5-0.4,1.5-1.4H52v1.7
		h-5.7V188.9z"/>
	<path class="st1" d="M53,188.9h0.3c0.4,0,0.4-0.3,0.4-1.2v-4.9c0-0.4,0-0.5-0.4-0.5H53v-0.3h2c0.1,0.2,0.2,0.7,0.4,1.1l1.8,4.2
		l1.8-4.4c0.2-0.4,0.3-0.7,0.3-1h2v0.3H61c-0.3,0-0.4,0.2-0.4,0.6v5.1c0,0.7,0,1,0.5,1h0.4v0.3h-2.8v-0.3H59c0.4,0,0.5-0.1,0.5-1
		V183h0l-2.4,5.7h-0.4l-2.4-5.7h0v4.7c0,0.9,0,1.2,0.5,1.2h0.4v0.3H53V188.9z"/>
	<path class="st1" d="M62.2,188.9h0.4c0.4,0,0.4-0.2,0.4-1v-4.6c0-1,0-1-0.4-1h-0.4v-0.3h3.3c1.2,0,2.3,0.5,2.3,1.7
		c0,1-1,1.5-1.8,1.7v0c1,0,2.1,0.7,2.1,1.8c0,1.2-1.4,2-2.3,2h-3.5V188.9z M64.2,185.2h0.5c1.2,0,1.8-0.4,1.8-1.6
		c0-0.9-0.7-1.4-1.5-1.4h-0.9V185.2z M64.2,188.9h0.8c1.2,0,1.9-0.6,1.9-1.7c0-1.3-1-1.6-2-1.6h-0.6V188.9z"/>
	<path class="st1" d="M69.2,188.9h0.3c0.4,0,0.5-0.2,0.5-0.5v-5.5c0-0.5-0.1-0.6-0.6-0.6h-0.3v-0.3h2.8v0.3h-0.3
		c-0.5,0-0.5,0.2-0.5,0.6v6h1.6c0.8,0,1.5-0.5,1.5-1.6h0.4v1.8h-5.4V188.9z"/>
	<path class="st1" d="M75.3,188.9h0.4c0.3,0,0.4-0.1,0.4-0.7v-5.3c0-0.6-0.1-0.7-0.5-0.7h-0.4v-0.3h5.6v1.7h-0.4
		c0-1-0.5-1.4-1.5-1.4h-1.8v3.1h1.5c0.7,0,1-0.5,1-1.1h0.4v2.5h-0.4c0-0.7-0.2-1.1-1-1.1h-1.5v3.2h1.9c1,0,1.5-0.4,1.5-1.4H81v1.7
		h-5.7V188.9z"/>
	<path class="st1" d="M82,188.9h0.3c0.4,0,0.5-0.2,0.5-0.5v-5.5c0-0.5-0.1-0.6-0.6-0.6H82v-0.3h2.8v0.3h-0.3c-0.4,0-0.6,0.1-0.6,0.6
		v5.5c0,0.4,0.1,0.5,0.5,0.5h0.3v0.3H82V188.9z"/>
	<path class="st1" d="M89.2,181.8c0.1,0.4,0.3,0.8,0.4,1.1l1.8,4.6c0.5,1.2,0.7,1.3,1,1.3h0.1v0.3h-2.8v-0.3H90
		c0.5,0,0.5-0.1,0.5-0.3c0-0.1,0-0.3-0.1-0.5l-0.5-1.4h-2.8l-0.4,0.9c-0.2,0.5-0.3,0.7-0.3,0.9c0,0.3,0.3,0.3,0.7,0.3h0.1v0.3h-2.1
		v-0.3h0.1c0.3,0,0.6-0.1,0.8-0.7l2.2-5.3c0.1-0.3,0.3-0.7,0.4-1H89.2z M89.7,186.5l-1.2-3.1l-1.3,3.1H89.7z"/>
	<path class="st1" d="M95.9,188.9h0.3c0.4,0,0.5-0.2,0.5-0.5v-5.5c0-0.5-0.1-0.6-0.6-0.6h-0.3v-0.3h2.8v0.3h-0.3
		c-0.5,0-0.5,0.2-0.5,0.6v6h1.6c0.8,0,1.5-0.5,1.5-1.6h0.4v1.8h-5.4V188.9z"/>
	<path class="st1" d="M102,188.9h0.4c0.3,0,0.4-0.1,0.4-0.7v-5.3c0-0.6,0-0.7-0.5-0.7H102v-0.3h5.6v1.7h-0.4c0-1-0.5-1.4-1.5-1.4
		h-1.8v3.1h1.5c0.7,0,1-0.5,1-1.1h0.4v2.5h-0.4c0-0.7-0.2-1.1-1-1.1h-1.5v3.2h1.9c1,0,1.5-0.4,1.5-1.4h0.4v1.7H102V188.9z"/>
	<path class="st1" d="M114.4,183.8h-0.4c-0.1-1-0.8-1.7-1.8-1.7c-1.8,0-2.1,2.1-2.1,3.5c0,1.5,0.3,3.4,2,3.4c0.7,0,1.4-0.4,1.4-1.4
		v-0.8c0-0.4-0.1-0.5-0.4-0.5h-0.4V186h2.5v0.3H115c-0.3,0-0.4,0.1-0.4,0.6v2.4h-0.3c0-0.1-0.1-0.2-0.3-0.2c-0.3,0-0.8,0.3-1.9,0.3
		c-2.4,0-3.3-1.7-3.3-3.8c0-2,1.2-3.7,3.3-3.7c0.5,0,0.9,0.1,1.1,0.2c0.3,0.1,0.4,0.2,0.6,0.2c0.1,0,0.2-0.1,0.2-0.3h0.4V183.8z"/>
	<path class="st1" d="M115.9,188.9h0.3c0.4,0,0.5-0.2,0.5-0.5v-5.5c0-0.5-0.1-0.6-0.6-0.6h-0.3v-0.3h2.8v0.3h-0.3
		c-0.4,0-0.6,0.1-0.6,0.6v5.5c0,0.4,0.1,0.5,0.5,0.5h0.3v0.3h-2.8V188.9z"/>
	<path class="st1" d="M124.1,183.6h-0.4c0-0.9-0.7-1.6-1.6-1.6c-0.9,0-1.6,0.5-1.6,1.4c0,1.6,3.9,1.1,3.9,3.7c0,1.4-1.1,2.2-2.5,2.2
		c-0.4,0-0.8-0.1-1-0.1c-0.3-0.1-0.5-0.1-0.5-0.1c-0.2,0-0.3,0.1-0.3,0.2h-0.4v-2h0.4c0.2,1.1,0.7,1.8,1.9,1.8
		c0.9,0,1.6-0.5,1.6-1.5c0-1.8-3.9-1.4-3.9-3.6c0-1.4,1.1-2.2,2.4-2.2c0.5,0,1.1,0.3,1.4,0.3c0.2,0,0.2-0.1,0.2-0.2h0.3V183.6z"/>
	<path class="st1" d="M125.4,188.9h0.3c0.4,0,0.5-0.2,0.5-0.5v-5.5c0-0.5-0.1-0.6-0.6-0.6h-0.3v-0.3h2.8v0.3h-0.3
		c-0.5,0-0.5,0.2-0.5,0.6v6h1.6c0.8,0,1.5-0.5,1.5-1.6h0.4v1.8h-5.4V188.9z"/>
	<path class="st1" d="M135,181.8c0.1,0.4,0.3,0.8,0.4,1.1l1.8,4.6c0.5,1.2,0.7,1.3,1,1.3h0.1v0.3h-2.8v-0.3h0.2
		c0.5,0,0.5-0.1,0.5-0.3c0-0.1,0-0.3-0.1-0.5l-0.5-1.4h-2.8l-0.4,0.9c-0.2,0.5-0.3,0.7-0.3,0.9c0,0.3,0.3,0.3,0.7,0.3h0.1v0.3h-2.1
		v-0.3h0.1c0.3,0,0.6-0.1,0.8-0.7l2.2-5.3c0.1-0.3,0.3-0.7,0.4-1H135z M135.5,186.5l-1.2-3.1l-1.3,3.1H135.5z"/>
	<path class="st1" d="M139.4,188.9h0.5c0.4,0,0.4-0.2,0.4-1.1v-5.6h-0.5c-0.9,0-1.6,0.5-1.6,1.5h-0.4v-1.8h6.1v1.8h-0.4
		c0-1-0.7-1.5-1.6-1.5h-0.5v5.6c0,0.9,0,1.1,0.4,1.1h0.5v0.3h-2.9V188.9z"/>
	<path class="st1" d="M144.7,188.9h0.3c0.4,0,0.5-0.2,0.5-0.5v-5.5c0-0.5-0.1-0.6-0.6-0.6h-0.3v-0.3h2.8v0.3h-0.3
		c-0.4,0-0.6,0.1-0.6,0.6v5.5c0,0.4,0.1,0.5,0.5,0.5h0.3v0.3h-2.8V188.9z"/>
	<path class="st1" d="M154.9,182.2h-0.2c-0.4,0-0.5,0.2-0.9,1.3l-1.9,5.1c-0.1,0.2-0.1,0.4-0.2,0.6h-0.6c-0.2-0.5-0.4-1-0.6-1.6
		l-1.7-4.4c-0.3-0.8-0.4-1-0.7-1h-0.3v-0.3h2.8v0.3h-0.4c-0.2,0-0.4,0.1-0.4,0.3c0,0.2,0,0.3,0.3,1.1l1.6,4.2l1.7-4.5
		c0.1-0.3,0.2-0.6,0.2-0.8c0-0.2-0.1-0.3-0.4-0.3h-0.4v-0.3h2.1V182.2z"/>
	<path class="st1" d="M157.9,181.8c0.1,0.4,0.3,0.8,0.4,1.1l1.8,4.6c0.5,1.2,0.7,1.3,1,1.3h0.1v0.3h-2.8v-0.3h0.2
		c0.5,0,0.5-0.1,0.5-0.3c0-0.1,0-0.3-0.1-0.5l-0.5-1.4h-2.8l-0.4,0.9c-0.2,0.5-0.3,0.7-0.3,0.9c0,0.3,0.3,0.3,0.7,0.3h0.1v0.3h-2.1
		v-0.3h0.1c0.3,0,0.6-0.1,0.8-0.7l2.2-5.3c0.1-0.3,0.3-0.7,0.4-1H157.9z M158.5,186.5l-1.2-3.1l-1.3,3.1H158.5z"/>
	<path class="st1" d="M44.4,194.7h2.9c2.4,0,3.7,1.4,3.7,3.7c0,2.5-1.9,3.5-3.6,3.5h-3v-0.3h0.4c0.4,0,0.4-0.1,0.4-1.1V196
		c0-0.7,0-0.9-0.4-0.9h-0.5V194.7z M46.4,201.7h0.9c2,0,2.4-1.7,2.4-3.3c0-1.7-0.5-3.3-2.5-3.3h-0.8V201.7z"/>
	<path class="st1" d="M55.1,194.6c2.1,0,3.1,1.9,3.1,3.8c0,1.9-1,3.8-3.1,3.8c-2.1,0-3.1-1.9-3.1-3.8C52,196.5,53,194.6,55.1,194.6
		 M55.1,201.9c1.7,0,1.8-2.3,1.8-3.5c0-1.2-0.1-3.5-1.8-3.5c-1.7,0-1.8,2.3-1.8,3.5C53.3,199.6,53.4,201.9,55.1,201.9"/>
	<path class="st1" d="M62.1,201.7h0.3c0.4,0,0.5-0.2,0.5-0.5v-5.5c0-0.5-0.1-0.6-0.6-0.6h-0.3v-0.3h3.3c1.2,0,2.3,0.4,2.3,1.6
		c0,0.9-0.9,1.6-1.8,1.8v0c1.2,0.2,1.5,0.5,1.5,1.9l0,1.3c0,0.2,0.1,0.4,0.2,0.4c0.3,0,0.4-0.2,0.5-0.5l0.3,0.1
		c-0.3,0.5-0.6,0.9-1.1,0.9c-0.9,0-1.1-0.7-1.1-1.4l-0.1-1.4c0-0.8-0.5-1.1-1.4-1.1h-0.7v2.8c0,0.4,0,0.6,0.5,0.6h0.3v0.3h-2.8
		V201.7z M64.1,198h0.8c0.9,0,1.6-0.4,1.6-1.5c0-1.1-0.6-1.5-1.6-1.5h-0.8V198z"/>
	<path class="st1" d="M69.1,201.7h0.3c0.4,0,0.5-0.2,0.5-0.5v-5.5c0-0.5-0.1-0.6-0.6-0.6h-0.3v-0.3h2.8v0.3h-0.3
		c-0.4,0-0.6,0.1-0.6,0.6v5.5c0,0.4,0.1,0.5,0.5,0.5h0.3v0.3h-2.8V201.7z"/>
	<path class="st1" d="M75.9,194.6c2.1,0,3.1,1.9,3.1,3.8c0,1.9-1,3.8-3.1,3.8c-2.1,0-3.1-1.9-3.1-3.8
		C72.8,196.5,73.8,194.6,75.9,194.6 M75.9,201.9c1.7,0,1.8-2.3,1.8-3.5c0-1.2-0.1-3.5-1.8-3.5c-1.7,0-1.8,2.3-1.8,3.5
		C74.1,199.6,74.2,201.9,75.9,201.9"/>
	<path class="st1" d="M82.8,194.7h2.9c2.4,0,3.7,1.4,3.7,3.7c0,2.5-1.9,3.5-3.6,3.5h-3v-0.3h0.4c0.4,0,0.4-0.1,0.4-1.1V196
		c0-0.7,0-0.9-0.4-0.9h-0.5V194.7z M84.8,201.7h0.9c2,0,2.4-1.7,2.4-3.3c0-1.7-0.5-3.3-2.5-3.3h-0.8V201.7z"/>
	<path class="st1" d="M90.4,201.7h0.4c0.3,0,0.4-0.1,0.4-0.6v-5.3c0-0.6-0.1-0.7-0.5-0.7h-0.4v-0.3h5.6v1.7h-0.4
		c0-1-0.5-1.4-1.5-1.4h-1.8v3.1h1.5c0.7,0,1-0.5,1-1.1h0.4v2.5h-0.4c0-0.7-0.2-1.1-1-1.1h-1.5v3.2h1.9c1,0,1.5-0.4,1.5-1.4H96v1.7
		h-5.7V201.7z"/>
	<path class="st1" d="M101.7,194.7h2.9v0.3h-0.4c-0.4,0-0.4,0.1-0.4,1.2v4c0,1-0.6,1.9-2.2,1.9c-0.5,0-1.1-0.1-1.5-0.3v-1.7h0.4
		c0,0.7,0.3,1.7,1.2,1.7c0.8,0,1-0.7,1-1.7v-3.9c0-1,0-1.2-0.5-1.2h-0.4V194.7z"/>
	<path class="st1" d="M108.6,194.6c0.1,0.4,0.3,0.8,0.4,1.1l1.8,4.6c0.5,1.2,0.7,1.3,1,1.3h0.1v0.3h-2.8v-0.3h0.2
		c0.5,0,0.5-0.1,0.5-0.3c0-0.1,0-0.3-0.1-0.5l-0.5-1.4h-2.8l-0.4,0.9c-0.2,0.5-0.3,0.7-0.3,0.9c0,0.3,0.3,0.3,0.7,0.3h0.1v0.3h-2.1
		v-0.3h0.1c0.3,0,0.6-0.1,0.8-0.7l2.2-5.3c0.1-0.3,0.3-0.7,0.4-1H108.6z M109.2,199.3l-1.2-3.2l-1.3,3.2H109.2z"/>
	<path class="st1" d="M112.2,201.7h0.4c0.4,0,0.4-0.4,0.4-1.2v-4.1c0-1.3-0.1-1.4-0.4-1.4h-0.4v-0.3h2l3.6,5.6h0v-4.2
		c0-0.9,0-1.1-0.6-1.1h-0.3v-0.3h2.1v0.3h-0.2c-0.5,0-0.6,0.3-0.6,1.1v5.9h-0.6l-4.2-6.4h0v4.8c0,0.8,0,1.2,0.4,1.2h0.4v0.3h-2.1
		V201.7z"/>
	<path class="st1" d="M119.9,201.7h0.4c0.3,0,0.4-0.1,0.4-0.6v-5.3c0-0.6-0.1-0.7-0.5-0.7h-0.4v-0.3h5.6v1.7h-0.4
		c0-1-0.5-1.4-1.5-1.4h-1.8v3.1h1.5c0.7,0,1-0.5,1-1.1h0.4v2.5h-0.4c0-0.7-0.2-1.1-1-1.1h-1.5v3.2h1.9c1,0,1.5-0.4,1.5-1.4h0.4v1.7
		h-5.7V201.7z"/>
	<path class="st1" d="M126.6,201.7h0.3c0.4,0,0.5-0.2,0.5-0.5v-5.5c0-0.5-0.1-0.6-0.6-0.6h-0.3v-0.3h2.8v0.3h-0.3
		c-0.4,0-0.6,0.1-0.6,0.6v5.5c0,0.4,0.1,0.5,0.5,0.5h0.3v0.3h-2.8V201.7z"/>
	<path class="st1" d="M130.2,201.7h0.3c0.4,0,0.5-0.2,0.5-0.5v-5.5c0-0.5-0.1-0.6-0.6-0.6h-0.3v-0.3h3.3c1.2,0,2.3,0.4,2.3,1.6
		c0,0.9-0.9,1.6-1.8,1.8v0c1.2,0.2,1.4,0.5,1.5,1.9l0.1,1.3c0,0.2,0.1,0.4,0.2,0.4c0.3,0,0.4-0.2,0.5-0.5l0.3,0.1
		c-0.3,0.5-0.6,0.9-1.1,0.9c-0.9,0-1.1-0.7-1.1-1.4l-0.1-1.4c0-0.8-0.5-1.1-1.4-1.1h-0.7v2.8c0,0.4,0,0.6,0.5,0.6h0.3v0.3h-2.8
		V201.7z M132.2,198h0.8c0.9,0,1.6-0.4,1.6-1.5c0-1.1-0.6-1.5-1.6-1.5h-0.8V198z"/>
	<path class="st1" d="M140.4,194.6c2.1,0,3.1,1.9,3.1,3.8c0,1.9-1,3.8-3.1,3.8c-2.1,0-3.1-1.9-3.1-3.8
		C137.3,196.5,138.3,194.6,140.4,194.6 M140.4,201.9c1.7,0,1.8-2.3,1.8-3.5c0-1.2-0.1-3.5-1.8-3.5c-1.7,0-1.8,2.3-1.8,3.5
		C138.6,199.6,138.7,201.9,140.4,201.9"/>
	<rect x="146.3" y="109.8" class="st1" width="2.9" height="7.4"/>
	<rect x="40.9" y="109.8" class="st1" width="2.9" height="7.4"/>
	<rect x="99.2" y="27.2" class="st1" width="5.2" height="5.6"/>
	<rect x="36.4" y="125.3" class="st1" width="117.1" height="2.7"/>
	<rect x="138.6" y="109.8" class="st1" width="4" height="7.4"/>
	<rect x="129.8" y="109.8" class="st1" width="5" height="7.4"/>
	<rect x="121" y="109.8" class="st1" width="4.9" height="7.4"/>
	<rect x="111.8" y="109.8" class="st1" width="5.5" height="7.4"/>
	<rect x="102.1" y="109.8" class="st1" width="5.9" height="7.4"/>
	<rect x="91.7" y="109.8" class="st1" width="6.6" height="7.4"/>
	<rect x="82.1" y="109.8" class="st1" width="5.8" height="7.4"/>
	<rect x="72.9" y="109.8" class="st1" width="5.4" height="7.4"/>
	<rect x="64.2" y="109.8" class="st1" width="5" height="7.4"/>
	<rect x="55.4" y="109.8" class="st1" width="5" height="7.4"/>
	<rect x="47.6" y="109.8" class="st1" width="4" height="7.4"/>
	<path class="st1" d="M108.2,97.2H82v-2.4h26.2V97.2z M108.2,101.6H82v-2.4h26.2V101.6z"/>
	<path class="st1" d="M130.9,97.1h-17.2v-2.4h17.2V97.1z M130.9,101.7h-17.2v-2.4h17.2V101.7z"/>
	<path class="st1" d="M146.2,97.1h-10v-2.4h10V97.1z M146.2,101.7h-10v-2.4h10V101.7z"/>
	<path class="st1" d="M53.8,97.1h-10v-2.4h10V97.1z M53.8,101.7h-10v-2.4h10V101.7z"/>
	<path class="st1" d="M99.5,41.8c5.8,17.2,8.5,31.9,8.5,46c0,1.4,0,2.8-0.1,4.2l0,0.3H82v-0.3c0-1.5-0.1-2.8-0.1-4.2
		c0-14.5,2.8-29.7,8.3-46.1H99.5z"/>
	<path class="st1" d="M110.4,41.8c12,13.5,19,30.9,20.2,50.2l0,0.4h-17l0-0.3c0-0.9,0-1.8,0-2.5c0-17.5-3.8-33.9-10.8-47.7H110.4z"
		/>
	<path class="st1" d="M118.8,41.8c15.8,12.2,25.5,30.1,27.3,50.2l0,0.3h-10l0-0.3c-1-19.4-9.5-37.2-23.5-50.3L118.8,41.8z"/>
	<rect x="36.4" y="120.3" class="st1" width="117.1" height="2.7"/>
	<rect x="36.4" y="104" class="st1" width="117.1" height="2.7"/>
	<rect x="78.7" y="27.2" class="st1" width="4.9" height="5.6"/>
	<rect x="85.3" y="27.2" class="st1" width="5" height="5.6"/>
	<rect x="106.5" y="27.2" class="st1" width="4.7" height="5.6"/>
	<rect x="92.3" y="27.2" class="st1" width="5.1" height="5.6"/>
	<path class="st1" d="M89.4,25l11,0l0-5.4c-0.3-2.9-2.6-5.1-5.5-5.1c-3,0-5.5,2.5-5.5,5.6L89.4,25z"/>
	<path class="st1" d="M104.8,22.4c0-1.9,1.5-3.2,3.2-3.2c1.8,0,3.2,1.5,3.2,3.3V25h-6.4V22.4z"/>
	<path class="st1" d="M78.7,22.4c0-1.9,1.5-3.2,3.2-3.2c1.8,0,3.2,1.5,3.2,3.3V25h-6.4L78.7,22.4z"/>
	<path class="st1" d="M98.2,36.3l-0.5-1.6l-5.6,0c-0.1,0.4-0.2,0.9-0.4,1.6H98.2z"/>
	<path class="st1" d="M99.1,39.6c-0.2-0.5-0.3-1.1-0.5-1.6l-7.4,0c-0.2,0.5-0.3,1.1-0.5,1.6L99.1,39.6z"/>
	<path class="st1" d="M106.3,36.3c-0.9-0.9-1.5-1.6-1.5-1.6h-5l0.8,1.6H106.3z"/>
	<path class="st1" d="M109.1,39.6c-0.5-0.5-1-1.1-1.5-1.6l-6.4,0l0.8,1.6H109.1z"/>
	<path class="st1" d="M113.4,36.3c-1.2-1-1.9-1.6-1.9-1.6h-4.7c0.6,0.6,1.1,1.1,1.5,1.6L113.4,36.3z"/>
	<path class="st1" d="M111.3,39.7c-0.5-0.5-1-1.1-1.5-1.6l5.4,0c0.5,0.5,1.3,1.1,1.9,1.6L111.3,39.7z"/>
	<path class="st1" d="M77.3,41.9c-14,13.1-22.5,30.8-23.5,50.3l0,0.3h-10l0-0.3c1.8-20.2,11.6-38,27.3-50.2L77.3,41.9z"/>
	<path class="st1" d="M76.6,97.1H59.4v-2.4h17.2V97.1z M76.6,101.7H59.4v-2.4h17.2V101.7z"/>
	<path class="st1" d="M87.2,41.8c-7,13.8-10.8,30.2-10.8,47.7c0,0.8,0,1.7,0,2.5l0,0.3h-17l0-0.4c1.1-19.3,8.1-36.7,20.2-50.2H87.2z
		"/>
	<path class="st1" d="M87.9,39.7l0.8-1.6h-6.4c-0.5,0.5-1,1.1-1.5,1.6L87.9,39.7z"/>
	<path class="st1" d="M89.4,36.3l0.8-1.6h-5.1c0,0-0.5,0.6-1.4,1.6H89.4z"/>
	<path class="st1" d="M78.7,39.7c0.5-0.5,1-1,1.5-1.6l-5.4,0c-0.6,0.5-1.2,1-1.9,1.6H78.7z"/>
	<path class="st1" d="M81.5,36.3c0,0,1-1,1.5-1.6h-4.6c0,0-0.7,0.6-1.9,1.6H81.5z"/>
</g>
</svg>
