<?xml version="1.0" encoding="utf-8"?>
<!-- Generator: Adobe Illustrator 22.0.0, SVG Export Plug-In . SVG Version: 6.00 Build 0)  -->
<svg version="1.1" id="Camada_1" xmlns="http://www.w3.org/2000/svg" xmlns:xlink="http://www.w3.org/1999/xlink" x="0px" y="0px"
	 viewBox="0 0 44 33.6" style="enable-background:new 0 0 44 33.6;" xml:space="preserve">
<style type="text/css">
	.st0{fill:#98A13F;}
</style>
<path id="Path_286" class="st0" d="M29.8,29.1h-5.6V2.2C24.2,1,23.2,0,22,0s-2.2,1-2.2,2.2v26.9h-5.6c-1.2,0-2.2,1-2.2,2.2
	s1,2.2,2.2,2.2l0,0h15.7c1.2,0,2.2-0.9,2.2-2.2v-0.1C32.1,30.1,31.1,29.1,29.8,29.1z"/>
<path id="Path_288" class="st0" d="M38,2.2H25.7v4.5H38c1.2,0,2.2-0.9,2.2-2.2V4.4C40.3,3.2,39.3,2.2,38,2.2z M37.7,5.2
	c-0.4,0-0.7-0.3-0.7-0.7V4.4c0-0.4,0.3-0.7,0.7-0.7c0.4,0,0.7,0.3,0.7,0.7C38.4,4.9,38.1,5.2,37.7,5.2L37.7,5.2z"/>
<path id="Path_289" class="st0" d="M38.7,8.2H37c-0.2,0-0.4,0.1-0.5,0.3l-2.8,4.9h0.9c0.2,0,0.4-0.1,0.5-0.3L37,9.5
	c0.2-0.3,0.6-0.4,0.9-0.2c0.1,0,0.1,0.1,0.2,0.2l1.9,3.6c0.1,0.2,0.3,0.3,0.5,0.3h0.9L38.7,8.2z"/>
<path id="Path_291" class="st0" d="M5.9,2.2c-1.2,0-2.2,0.9-2.2,2.2v0.1c0,1.2,0.9,2.2,2.2,2.2H6h12.3V2.2L5.9,2.2L5.9,2.2z
	 M6.3,5.2c-0.4,0-0.7-0.3-0.7-0.7V4.4c0-0.4,0.3-0.7,0.7-0.7h0.1c0.4,0,0.7,0.3,0.7,0.7v0.1C7,4.9,6.7,5.2,6.3,5.2z"/>
<path id="Path_292" class="st0" d="M7.3,8.2H5.5C5.3,8.2,5.1,8.3,5,8.5l-2.7,4.9h0.9c0.2,0,0.4-0.1,0.5-0.3l1.9-3.6
	c0.2-0.3,0.6-0.4,0.9-0.2c0.1,0,0.1,0.1,0.2,0.2l1.9,3.6c0.1,0.2,0.3,0.3,0.5,0.3H10L7.3,8.2z"/>
<path class="st0" d="M43.3,15c-0.1,0-0.1,0-0.2,0h-11v0h-0.3c-0.2,0.1-0.4,0.3-0.4,0.6c0,0.1,0,0.1,0,0.2c0.6,3.4,3.9,5.7,7.4,5
	c2.6-0.5,4.6-2.5,5-5C43.9,15.4,43.7,15.1,43.3,15z"/>
<path class="st0" d="M12,15c-0.1,0-0.1,0-0.2,0H0.7v0H0.4C0.1,15.1,0,15.3,0,15.6c0,0.1,0,0.1,0,0.2c0.6,3,3.2,5.1,6.3,5.2
	c3,0,5.7-2.2,6.2-5.2C12.6,15.4,12.4,15.1,12,15z"/>
</svg>
