<?xml version="1.0" encoding="utf-8"?>
<!-- Generator: Adobe Illustrator 22.0.0, SVG Export Plug-In . SVG Version: 6.00 Build 0)  -->
<svg version="1.1" id="Camada_1" xmlns="http://www.w3.org/2000/svg" xmlns:xlink="http://www.w3.org/1999/xlink" x="0px" y="0px"
	 viewBox="0 0 36.5 35" style="enable-background:new 0 0 36.5 35;" xml:space="preserve">
<style type="text/css">
	.st0{fill:#98A13F;}
</style>
<g id="Group_83" transform="translate(262 233.457)">
	<path id="Path_274" class="st0" d="M-226.1-202.3h-35.3c-0.4,0-0.7,0.3-0.7,0.7c0,0,0,0,0,0v2.3c0,0.4,0.3,0.7,0.7,0.7c0,0,0,0,0,0
		h35.2c0.4,0,0.7-0.3,0.7-0.7c0,0,0,0,0,0v-2.3C-225.5-201.9-225.7-202.2-226.1-202.3C-226-202.3-226.1-202.3-226.1-202.3z"/>
	<path id="Path_275" class="st0" d="M-259.8-204.5v0.8c0,0.4,0.3,0.7,0.7,0.7c0,0,0,0,0,0h30.7c0.4,0,0.7-0.3,0.7-0.7c0,0,0,0,0,0
		v-0.8c0-0.4-0.3-0.7-0.7-0.7c0,0,0,0,0,0h-30.7C-259.5-205.3-259.8-204.9-259.8-204.5z"/>
	<path id="Path_276" class="st0" d="M-246.1-206c0.5,0,1-0.4,1-1v-11.4c0-0.5-0.4-1-1-1h-2c-0.5,0-1,0.4-1,1v11.5c0,0.5,0.4,1,1,1
		L-246.1-206L-246.1-206z"/>
	<path id="Path_277" class="st0" d="M-239.2-206c0.5,0,1-0.4,1-1v-11.4c0-0.5-0.4-1-1-1h-2c-0.5,0-1,0.4-1,1v11.5c0,0.5,0.4,1,1,1
		L-239.2-206L-239.2-206z"/>
	<path id="Path_278" class="st0" d="M-255.1-206h2c0.5,0,1-0.4,1-1v-11.4c0-0.5-0.4-1-1-1h-4.3c-0.5,0-1,0.4-1,1v0.3
		c0,0.5,0.4,1,1,1h0.3c0.5,0,1,0.4,1,1v9.3C-256-206.4-255.6-206-255.1-206z"/>
	<path id="Path_279" class="st0" d="M-232.4-206c0.5,0,1-0.4,1-1v-9.2c0-0.5,0.4-1,1-1h0.3c0.5,0,1-0.4,1-1v-0.3c0-0.5-0.4-1-1-1
		h-4.3c-0.5,0-1,0.4-1,1v11.5c0,0.5,0.4,1,1,1L-232.4-206L-232.4-206z"/>
	<path id="Path_280" class="st0" d="M-259.5-220.2h31.6c0.5,0,0.8-0.4,0.8-0.8c0-0.3-0.1-0.5-0.3-0.6l-15.8-11.6
		c-0.3-0.2-0.7-0.2-1,0l-15.8,11.6c-0.4,0.3-0.4,0.8-0.1,1.2C-260-220.3-259.8-220.2-259.5-220.2z M-243.7-226.2
		c1,0,1.9,0.8,1.9,1.9c0,1-0.8,1.9-1.9,1.9c-1,0-1.9-0.8-1.9-1.9l0,0C-245.6-225.3-244.8-226.2-243.7-226.2
		C-243.8-226.2-243.7-226.2-243.7-226.2z"/>
</g>
</svg>
